<svg width="380" height="88" viewBox="0 0 380 88" fill="none" xmlns="http://www.w3.org/2000/svg">
<mask id="mask0" mask-type="alpha" maskUnits="userSpaceOnUse" x="0" y="0" width="380" height="88">
<rect width="380" height="88" rx="10" fill="#C4C4C4"/>
</mask>
<g mask="url(#mask0)">
<rect width="380" height="88" rx="10" fill="white"/>
<path d="M135.135 50.8409C132.821 50.8409 131.017 50.1667 129.706 48.8187C128.394 47.4705 127.757 45.6123 127.757 43.244C127.757 40.821 128.358 38.9081 129.578 37.5236C130.781 36.139 132.457 35.4467 134.57 35.4467C136.537 35.4467 138.086 36.0479 139.215 37.232C140.345 38.4161 140.928 40.074 140.928 42.1509V43.8633H131.017C131.054 45.3026 131.455 46.4139 132.183 47.1972C132.912 47.9807 133.951 48.3633 135.299 48.3633C136.173 48.3633 136.993 48.2721 137.758 48.1081C138.523 47.9442 139.325 47.6709 140.199 47.2883V49.857C139.434 50.2215 138.651 50.4765 137.867 50.6405C137.047 50.7679 136.155 50.8409 135.135 50.8409ZM134.57 37.8332C133.568 37.8332 132.766 38.143 132.147 38.7806C131.546 39.4182 131.182 40.3473 131.072 41.5678H137.831C137.813 40.3473 137.521 39.4182 136.938 38.7806C136.355 38.143 135.572 37.8332 134.57 37.8332Z" fill="black"/>
<path d="M147.67 50.5855H144.518V29.6534H147.67V50.5855Z" fill="black"/>
<path d="M161.495 50.5856L160.858 48.5088H160.748C160.038 49.4198 159.309 50.039 158.581 50.367C157.852 50.6948 156.923 50.8589 155.775 50.8589C154.318 50.8589 153.17 50.4581 152.35 49.6748C151.53 48.8915 151.111 47.7618 151.111 46.3227C151.111 44.7923 151.676 43.6264 152.824 42.8614C153.953 42.0779 155.702 41.6589 158.034 41.5861L160.603 41.5132V40.7116C160.603 39.7643 160.384 39.0537 159.929 38.5801C159.491 38.1065 158.799 37.8696 157.87 37.8696C157.105 37.8696 156.376 37.9789 155.684 38.1975C154.992 38.4161 154.318 38.6894 153.662 38.9992L152.642 36.7401C153.443 36.3211 154.336 35.9932 155.283 35.7746C156.249 35.556 157.141 35.4468 157.997 35.4468C159.892 35.4468 161.313 35.8658 162.279 36.6856C163.244 37.5054 163.718 38.7989 163.718 40.566V50.5857H161.495V50.5856ZM156.795 48.4176C157.943 48.4176 158.872 48.0898 159.564 47.4522C160.257 46.8145 160.603 45.9036 160.603 44.756V43.4625L158.69 43.5354C157.196 43.5901 156.121 43.8451 155.447 44.2823C154.773 44.7197 154.427 45.4118 154.427 46.3227C154.427 46.9786 154.627 47.5068 155.01 47.8713C155.411 48.2536 156.012 48.4176 156.795 48.4176Z" fill="black"/>
<path d="M178.164 46.3408C178.164 47.7983 177.636 48.9095 176.58 49.6746C175.523 50.4579 174.011 50.8407 172.025 50.8407C170.04 50.8407 168.454 50.549 167.252 49.9479V47.2152C169.001 48.0168 170.622 48.4175 172.135 48.4175C174.084 48.4175 175.049 47.8345 175.049 46.6504C175.049 46.2679 174.94 45.9581 174.721 45.7032C174.503 45.448 174.157 45.193 173.665 44.9197C173.173 44.6466 172.481 44.355 171.606 44.0089C169.894 43.353 168.728 42.6789 168.127 42.0231C167.526 41.3672 167.216 40.4928 167.216 39.4361C167.216 38.1609 167.726 37.1771 168.764 36.4666C169.785 35.7562 171.187 35.41 172.954 35.41C174.703 35.41 176.361 35.7562 177.91 36.4666L176.889 38.8532C175.286 38.1974 173.938 37.8512 172.845 37.8512C171.169 37.8512 170.349 38.3248 170.349 39.2722C170.349 39.7459 170.568 40.1284 171.005 40.4563C171.442 40.7842 172.39 41.2214 173.847 41.7863C175.068 42.2599 175.96 42.6972 176.525 43.098C177.09 43.4988 177.49 43.9541 177.764 44.4642C178.019 45.011 178.164 45.6303 178.164 46.3408Z" fill="black"/>
<path d="M187.13 48.2904C187.895 48.2904 188.678 48.1628 189.443 47.926V50.3125C189.097 50.4582 188.642 50.5858 188.095 50.6951C187.549 50.8043 186.966 50.8409 186.383 50.8409C183.395 50.8409 181.883 49.2559 181.883 46.1042V38.0883H179.861V36.7038L182.047 35.5561L183.122 32.4044H185.053V35.72H189.298V38.1065H185.053V46.0678C185.053 46.8329 185.235 47.3977 185.617 47.762C186 48.1081 186.51 48.2904 187.13 48.2904Z" fill="black"/>
<path d="M192.21 31.7667C192.21 31.2019 192.356 30.7646 192.666 30.455C192.975 30.1453 193.413 29.9995 193.996 29.9995C194.56 29.9995 194.979 30.1453 195.289 30.455C195.599 30.7647 195.745 31.2019 195.745 31.7667C195.745 32.3131 195.599 32.7322 195.289 33.0419C194.979 33.3516 194.542 33.4973 193.996 33.4973C193.413 33.4973 192.975 33.3515 192.666 33.0419C192.374 32.7322 192.21 32.295 192.21 31.7667ZM195.562 50.5855H192.411V35.7198H195.562V50.5855Z" fill="black"/>
<path d="M206.075 50.8408C203.816 50.8408 202.122 50.1849 200.938 48.8731C199.772 47.5615 199.189 45.6669 199.189 43.2256C199.189 40.7297 199.809 38.7987 201.029 37.4505C202.25 36.1024 204.017 35.4283 206.33 35.4283C207.897 35.4283 209.318 35.7198 210.575 36.3027L209.628 38.8533C208.298 38.325 207.187 38.07 206.312 38.07C203.744 38.07 202.45 39.7824 202.45 43.1892C202.45 44.8653 202.778 46.1041 203.416 46.9421C204.053 47.7802 205.001 48.1992 206.239 48.1992C207.642 48.1992 208.972 47.853 210.229 47.1426V49.8935C209.664 50.2214 209.063 50.4581 208.426 50.604C207.77 50.7678 207.004 50.8408 206.075 50.8408Z" fill="black"/>
<path d="M223.711 46.3408C223.711 47.7983 223.183 48.9095 222.126 49.6746C221.07 50.4579 219.558 50.8407 217.572 50.8407C215.586 50.8407 214.001 50.549 212.799 49.9479V47.2152C214.548 48.0168 216.169 48.4175 217.681 48.4175C219.631 48.4175 220.596 47.8345 220.596 46.6504C220.596 46.2679 220.487 45.9581 220.268 45.7032C220.05 45.448 219.703 45.193 219.212 44.9197C218.72 44.6466 218.028 44.355 217.153 44.0089C215.44 43.353 214.275 42.6789 213.673 42.0231C213.072 41.3672 212.763 40.4928 212.763 39.4361C212.763 38.1609 213.273 37.1771 214.311 36.4666C215.331 35.7562 216.734 35.41 218.501 35.41C220.25 35.41 221.908 35.7562 223.456 36.4666L222.436 38.8532C220.833 38.1974 219.485 37.8512 218.392 37.8512C216.716 37.8512 215.896 38.3248 215.896 39.2722C215.896 39.7459 216.115 40.1284 216.552 40.4563C216.989 40.7842 217.936 41.2214 219.394 41.7863C220.614 42.2599 221.507 42.6972 222.072 43.098C222.637 43.4988 223.037 43.9541 223.311 44.4642C223.584 45.011 223.711 45.6303 223.711 46.3408Z" fill="black"/>
<path d="M233.619 50.8409C231.306 50.8409 229.502 50.1667 228.191 48.8187C226.879 47.4705 226.241 45.6123 226.241 43.244C226.241 40.821 226.842 38.9081 228.063 37.5236C229.265 36.139 230.941 35.4467 233.055 35.4467C235.022 35.4467 236.571 36.0479 237.7 37.232C238.83 38.4161 239.413 40.074 239.413 42.1509V43.8633H229.502C229.539 45.3026 229.939 46.4139 230.668 47.1972C231.397 47.9807 232.435 48.3633 233.783 48.3633C234.658 48.3633 235.478 48.2721 236.243 48.1081C237.008 47.9442 237.809 47.6709 238.684 47.2883V49.857C237.919 50.2215 237.135 50.4765 236.352 50.6405C235.532 50.7679 234.64 50.8409 233.619 50.8409ZM233.036 37.8332C232.035 37.8332 231.233 38.143 230.614 38.7806C230.012 39.4182 229.648 40.3473 229.539 41.5678H236.297C236.279 40.3473 235.988 39.4182 235.405 38.7806C234.84 38.143 234.057 37.8332 233.036 37.8332Z" fill="black"/>
<path d="M252.312 50.5856L251.675 48.5088H251.565C250.855 49.4198 250.126 50.039 249.397 50.367C248.669 50.6948 247.739 50.8589 246.592 50.8589C245.134 50.8589 243.986 50.4581 243.167 49.6748C242.347 48.8915 241.928 47.7618 241.928 46.3227C241.928 44.7923 242.493 43.6264 243.64 42.8614C244.77 42.0779 246.519 41.6589 248.851 41.5861L251.419 41.5132V40.7116C251.419 39.7643 251.201 39.0537 250.745 38.5801C250.308 38.1065 249.616 37.8696 248.687 37.8696C247.922 37.8696 247.193 37.9789 246.501 38.1975C245.808 38.4161 245.134 38.6894 244.478 38.9992L243.458 36.7401C244.26 36.3211 245.152 35.9932 246.1 35.7746C247.065 35.556 247.958 35.4468 248.814 35.4468C250.709 35.4468 252.13 35.8658 253.095 36.6856C254.061 37.5054 254.535 38.7989 254.535 40.566V50.5857H252.312V50.5856ZM247.594 48.4176C248.741 48.4176 249.671 48.0898 250.363 47.4522C251.055 46.8145 251.401 45.9036 251.401 44.756V43.4625L249.488 43.5354C247.995 43.5901 246.92 43.8451 246.246 44.2823C245.572 44.7197 245.225 45.4118 245.225 46.3227C245.225 46.9786 245.426 47.5068 245.808 47.8713C246.209 48.2536 246.81 48.4176 247.594 48.4176Z" fill="black"/>
<path d="M266.521 35.4285C267.159 35.4285 267.687 35.4648 268.088 35.5559L267.778 38.5072C267.323 38.3979 266.868 38.3433 266.376 38.3433C265.119 38.3433 264.08 38.7623 263.297 39.5821C262.514 40.4019 262.113 41.4767 262.113 42.7884V50.5675H258.961V35.7016H261.439L261.858 38.3249H262.022C262.514 37.4323 263.151 36.74 263.953 36.2117C264.754 35.7017 265.611 35.4285 266.521 35.4285Z" fill="black"/>
<path d="M276.851 50.8408C274.592 50.8408 272.897 50.1849 271.713 48.8731C270.547 47.5615 269.964 45.6669 269.964 43.2256C269.964 40.7297 270.584 38.7987 271.804 37.4505C273.025 36.1024 274.792 35.4283 277.106 35.4283C278.672 35.4283 280.093 35.7198 281.35 36.3027L280.403 38.8533C279.073 38.325 277.962 38.07 277.088 38.07C274.519 38.07 273.225 39.7824 273.225 43.1892C273.225 44.8653 273.553 46.1041 274.191 46.9421C274.828 47.7802 275.776 48.1992 277.015 48.1992C278.417 48.1992 279.747 47.853 281.004 47.1426V49.8935C280.44 50.2214 279.838 50.4581 279.201 50.604C278.545 50.7678 277.762 50.8408 276.851 50.8408Z" fill="black"/>
<path d="M297.565 50.5855H294.395V41.4403C294.395 40.2925 294.158 39.4363 293.703 38.8716C293.248 38.3068 292.501 38.0154 291.499 38.0154C290.169 38.0154 289.203 38.4162 288.566 39.1995C287.946 40.0011 287.636 41.3309 287.636 43.1892V50.5674H284.485V29.6534H287.636V34.973C287.636 35.8293 287.582 36.7401 287.473 37.7057H287.673C288.11 36.9952 288.693 36.4304 289.477 36.0296C290.242 35.6288 291.134 35.4467 292.155 35.4467C295.762 35.4467 297.565 37.2685 297.565 40.8938V50.5855Z" fill="black"/>
<path d="M105.604 37.1046H93.5982C93.6893 37.3779 93.7621 37.6511 93.835 37.9244C94.2176 39.309 94.4727 40.73 94.582 42.2057C94.6184 42.7886 94.6548 43.3898 94.6548 43.991C94.6548 44.5922 94.6366 45.1933 94.582 45.7764C94.4727 47.252 94.2176 48.6728 93.835 50.0575C93.7621 50.3308 93.6711 50.6041 93.5982 50.8772H105.604C109.375 50.8772 112.435 47.7986 112.454 44.0092C112.454 40.2016 109.393 37.1046 105.604 37.1046Z" fill="#00A9E5"/>
<path d="M94.6017 45.7764C94.6381 45.1933 94.6746 44.5922 94.6746 43.991C94.6746 43.3898 94.6564 42.7886 94.6017 42.2057C94.4924 40.7301 94.2373 39.309 93.8548 37.9244C93.782 37.6511 93.6909 37.3779 93.618 37.1046H75.054C74.38 39.2725 73.9974 41.5862 73.9974 43.991C73.9974 46.3956 74.3617 48.7094 75.054 50.8772H93.5998C93.6909 50.6041 93.7637 50.3308 93.8366 50.0575C94.2373 48.6728 94.4924 47.252 94.6017 45.7764Z" fill="#353535"/>
<path d="M107.701 53.1727H92.7625C92.3071 54.1929 91.7971 55.1766 91.214 56.1239C90.3396 57.5268 89.3193 58.8384 88.1534 60.0226C87.7709 60.4233 87.3701 60.7877 86.9693 61.1704C86.1495 61.899 85.2751 62.5731 84.346 63.1742C87.9714 65.5608 92.3072 66.9635 96.9709 66.9635C104.932 66.9635 111.946 62.9009 116.063 56.7434C113.95 54.539 110.98 53.1727 107.701 53.1727Z" fill="#00BFB3"/>
<path d="M91.1952 56.1057C91.7781 55.1765 92.3066 54.1928 92.7438 53.1545H75.9288C77.7141 57.2352 80.6654 60.7147 84.3454 63.1377C85.2745 62.5366 86.1489 61.8624 86.9687 61.1337C87.3877 60.7694 87.7703 60.3869 88.1528 59.9861C89.3006 58.8201 90.3208 57.5268 91.1952 56.1057Z" fill="#019B8F"/>
<path d="M88.1529 27.9776C87.7704 27.5768 87.3696 27.2124 86.9689 26.8298C86.149 26.1011 85.2746 25.427 84.3455 24.8258C80.6474 27.2488 77.7143 30.7284 75.9289 34.8092H92.7622C92.3067 33.7889 91.7967 32.8052 91.2136 31.8578C90.3209 30.4552 89.3007 29.1617 88.1529 27.9776Z" fill="#F9B110"/>
<path d="M96.9701 21.0366C92.3064 21.0366 87.9705 22.4394 84.3452 24.8259C85.2743 25.4271 86.1487 26.1011 86.9685 26.8298C87.3875 27.1942 87.7701 27.5768 88.1526 27.9776C89.3004 29.1617 90.3205 30.4552 91.2131 31.8762C91.7961 32.8054 92.3245 33.789 92.7617 34.8275H107.7C110.979 34.8275 113.949 33.4612 116.062 31.275C111.945 25.0991 104.931 21.0366 96.9701 21.0366Z" fill="#FED10A"/>
</g>
</svg>
