<svg width="449" height="199" viewBox="0 0 449 199" fill="none" xmlns="http://www.w3.org/2000/svg">
<g filter="url(#filter0_d)">
<mask id="mask0" mask-type="alpha" maskUnits="userSpaceOnUse" x="30" y="20" width="389" height="139">
<rect x="30" y="71.7461" width="380" height="88" rx="10" transform="rotate(-7.82647 30 71.7461)" fill="#C4C4C4"/>
</mask>
<g mask="url(#mask0)">
<rect x="30" y="71.7461" width="380" height="88" rx="10" transform="rotate(-7.82647 30 71.7461)" fill="#D0D7F9"/>
<path d="M170.799 103.711C168.507 104.027 166.628 103.604 165.145 102.447C163.662 101.29 162.778 99.5363 162.455 97.19C162.125 94.7896 162.46 92.8127 163.481 91.2749C164.483 89.7394 166.05 88.8253 168.143 88.5375C170.092 88.2696 171.708 88.6544 172.989 89.6736C174.269 90.6929 175.072 92.2559 175.355 94.3135L175.588 96.01L165.77 97.3595C166.002 98.7804 166.551 99.8268 167.379 100.504C168.208 101.181 169.289 101.418 170.624 101.235C171.49 101.116 172.29 100.914 173.026 100.647C173.761 100.38 174.518 100 175.333 99.5024L175.682 102.047C174.974 102.512 174.233 102.872 173.479 103.141C172.684 103.379 171.81 103.573 170.799 103.711ZM168.468 90.9018C167.476 91.0383 166.724 91.4543 166.197 92.1703C165.688 92.8838 165.454 93.8539 165.512 95.078L172.208 94.1576C172.023 92.9509 171.608 92.0701 170.944 91.5179C170.279 90.9656 169.461 90.7654 168.468 90.9018Z" fill="black"/>
<path d="M183.183 101.751L180.061 102.18L177.21 81.4434L180.333 81.0142L183.183 101.751Z" fill="black"/>
<path d="M196.879 99.8689L195.965 97.8983L195.857 97.9132C195.277 98.9124 194.639 99.6251 193.962 100.049C193.285 100.473 192.387 100.762 191.25 100.919C189.806 101.117 188.614 100.876 187.695 100.212C186.776 99.5476 186.207 98.4855 186.011 97.0597C185.803 95.5436 186.204 94.3117 187.237 93.3975C188.249 92.4675 189.924 91.8143 192.225 91.4246L194.76 91.0026L194.651 90.2084C194.522 89.27 194.208 88.5958 193.692 88.1886C193.195 87.7789 192.477 87.6385 191.556 87.765C190.798 87.8692 190.091 88.0768 189.435 88.3876C188.779 88.6984 188.149 89.0609 187.541 89.4571L186.223 87.358C186.96 86.8338 187.799 86.3873 188.708 86.0418C189.635 85.6938 190.504 85.464 191.353 85.3474C193.23 85.0894 194.694 85.311 195.763 85.9917C196.831 86.6724 197.476 87.8893 197.717 89.64L199.081 99.5663L196.879 99.869L196.879 99.8689ZM191.928 98.3612C193.065 98.2049 193.941 97.7536 194.54 97.0277C195.139 96.3016 195.358 95.352 195.201 94.2152L195.025 92.9337L193.14 93.2664C191.668 93.524 190.637 93.923 190.029 94.448C189.421 94.973 189.172 95.7059 189.296 96.6082C189.386 97.258 189.656 97.754 190.085 98.0631C190.534 98.3873 191.152 98.4678 191.928 98.3612Z" fill="black"/>
<path d="M212.815 93.3937C213.014 94.8376 212.642 96.0104 211.699 96.9123C210.759 97.8322 209.313 98.4172 207.346 98.6876C205.379 98.958 203.769 98.8849 202.496 98.4531L202.124 95.7459C203.965 96.3019 205.626 96.4781 207.124 96.2722C209.055 96.0067 209.933 95.2977 209.771 94.1246C209.719 93.7456 209.569 93.4536 209.317 93.2308C209.066 93.0078 208.688 92.8023 208.164 92.5986C207.64 92.3949 206.914 92.2004 206.001 91.9765C204.215 91.56 202.968 91.051 202.283 90.4831C201.598 89.9152 201.172 89.0911 201.028 88.0442C200.855 86.7809 201.226 85.7368 202.158 84.8915C203.072 84.0488 204.415 83.5149 206.165 83.2742C207.898 83.0361 209.587 83.1532 211.218 83.6462L210.532 86.1494C208.855 85.718 207.472 85.5587 206.389 85.7076C204.729 85.9358 203.981 86.5166 204.11 87.4551C204.175 87.9245 204.443 88.2736 204.921 88.539C205.399 88.8043 206.397 89.1084 207.918 89.4695C209.192 89.7725 210.135 90.0842 210.749 90.4043C211.363 90.7245 211.823 91.121 212.163 91.5892C212.49 92.0961 212.718 92.6898 212.815 93.3937Z" fill="black"/>
<path d="M221.962 94.1041C222.72 93.9999 223.479 93.7669 224.205 93.428L224.53 95.7923C224.207 95.9838 223.773 96.1723 223.246 96.3549C222.72 96.5376 222.147 96.6532 221.57 96.7326C218.61 97.1395 216.896 95.7751 216.467 92.6528L215.375 84.7116L213.372 84.9869L213.183 83.6153L215.193 82.1806L215.829 78.9119L217.742 78.6489L218.193 81.9336L222.398 81.3556L222.723 83.7199L218.518 84.2979L219.602 92.185C219.706 92.943 219.964 93.4777 220.392 93.7865C220.819 94.0773 221.349 94.1885 221.962 94.1041Z" fill="black"/>
<path d="M224.746 77.0427C224.669 76.4832 224.753 76.0302 225.018 75.6812C225.283 75.3322 225.696 75.1283 226.274 75.0489C226.833 74.972 227.268 75.0593 227.617 75.324C227.966 75.5887 228.17 76.0019 228.247 76.5614C228.321 77.1028 228.234 77.5377 227.969 77.8868C227.705 78.2358 227.292 78.4396 226.75 78.5141C226.172 78.5935 225.719 78.5086 225.371 78.244C225.039 77.9769 224.817 77.5661 224.746 77.0427ZM230.629 95.2298L227.507 95.6589L225.482 80.9317L228.605 80.5025L230.629 95.2298Z" fill="black"/>
<path d="M241.079 94.0514C238.841 94.359 237.073 93.9399 235.722 92.8016C234.388 91.661 233.552 89.8633 233.22 87.4448C232.88 84.9722 233.231 82.9748 234.256 81.4729C235.282 79.9712 236.941 79.0628 239.233 78.7478C240.785 78.5344 242.233 78.6296 243.557 79.036L242.966 81.6917C241.577 81.3495 240.441 81.2482 239.575 81.3673C237.03 81.7171 235.982 83.5897 236.445 86.9647C236.674 88.6252 237.167 89.8078 237.913 90.5512C238.659 91.2946 239.654 91.5807 240.882 91.412C242.271 91.221 243.542 90.697 244.69 89.822L245.065 92.5473C244.55 92.949 243.987 93.2654 243.375 93.4968C242.748 93.7483 241.999 93.9249 241.079 94.0514Z" fill="black"/>
<path d="M257.938 87.1915C258.136 88.6355 257.764 89.8082 256.822 90.7101C255.882 91.63 254.436 92.2151 252.468 92.4855C250.501 92.7559 248.891 92.6828 247.618 92.251L247.246 89.5438C249.088 90.0997 250.749 90.2759 252.247 90.07C254.178 89.8046 255.055 89.0955 254.894 87.9225C254.842 87.5435 254.691 87.2515 254.44 87.0287C254.189 86.8056 253.811 86.6001 253.287 86.3964C252.762 86.1928 252.037 85.9982 251.123 85.7744C249.337 85.3578 248.09 84.8488 247.405 84.281C246.721 83.7131 246.295 82.8889 246.151 81.8421C245.977 80.5788 246.349 79.5347 247.281 78.6894C248.195 77.8466 249.537 77.3127 251.288 77.0721C253.02 76.8339 254.71 76.951 256.341 77.444L255.655 79.9473C253.977 79.5159 252.595 79.3566 251.512 79.5054C249.851 79.7336 249.104 80.3145 249.233 81.253C249.297 81.7223 249.566 82.0715 250.044 82.3368C250.522 82.6021 251.52 82.9062 253.04 83.2673C254.314 83.5704 255.258 83.882 255.872 84.2022C256.486 84.5223 256.945 84.9189 257.285 85.387C257.63 85.8915 257.841 86.4876 257.938 87.1915Z" fill="black"/>
<path d="M268.366 90.3003C266.074 90.6154 264.196 90.1931 262.713 89.0362C261.23 87.8792 260.345 86.1251 260.022 83.7789C259.693 81.3785 260.028 79.4015 261.048 77.8637C262.051 76.3283 263.617 75.4142 265.711 75.1264C267.66 74.8585 269.276 75.2432 270.556 76.2625C271.836 77.2818 272.64 78.8448 272.922 80.9024L273.156 82.5989L263.337 83.9484C263.57 85.3693 264.118 86.4157 264.946 87.0925C265.775 87.7694 266.856 88.007 268.191 87.8235C269.058 87.7044 269.857 87.5024 270.593 87.2357C271.329 86.9693 272.086 86.5893 272.9 86.0912L273.25 88.636C272.541 89.1012 271.8 89.4606 271.046 89.7297C270.251 89.9675 269.377 90.1614 268.366 90.3003ZM266.018 77.4932C265.025 77.6296 264.273 78.0456 263.746 78.7617C263.238 79.4752 263.003 80.4453 263.061 81.6693L269.757 80.7489C269.573 79.5423 269.157 78.6615 268.493 78.1092C267.847 77.5545 267.028 77.3543 266.018 77.4932Z" fill="black"/>
<path d="M286.85 87.5022L285.936 85.5316L285.828 85.5465C285.248 86.5457 284.61 87.2584 283.933 87.6826C283.255 88.1066 282.357 88.3957 281.22 88.552C279.777 88.7504 278.585 88.5096 277.666 87.8452C276.747 87.1809 276.178 86.1188 275.982 84.693C275.774 83.1769 276.175 81.945 277.207 81.0308C278.22 80.1009 279.895 79.4476 282.196 79.0579L284.73 78.6359L284.621 77.8417C284.492 76.9033 284.179 76.2291 283.663 75.8219C283.166 75.4122 282.447 75.2718 281.527 75.3983C280.769 75.5025 280.062 75.7101 279.406 76.0209C278.75 76.3317 278.119 76.6942 277.512 77.0904L276.193 74.9913C276.931 74.4671 277.77 74.0207 278.679 73.6751C279.606 73.3271 280.475 73.0973 281.323 72.9807C283.2 72.7227 284.665 72.9443 285.733 73.625C286.802 74.3057 287.447 75.5226 287.688 77.2733L289.052 87.1996L286.85 87.5023L286.85 87.5022ZM281.881 85.9969C283.018 85.8407 283.894 85.3894 284.493 84.6635C285.092 83.9374 285.31 82.9878 285.154 81.851L284.978 80.5695L283.093 80.9022C281.62 81.1598 280.59 81.5588 279.982 82.0838C279.374 82.6088 279.125 83.3417 279.249 84.244C279.338 84.8938 279.609 85.3898 280.038 85.6989C280.487 86.023 281.105 86.1036 281.881 85.9969Z" fill="black"/>
<path d="M298.863 70.5511C299.495 70.4642 300.023 70.4283 300.433 70.464L300.528 73.4299C300.062 73.3837 299.603 73.3916 299.116 73.4585C297.87 73.6297 296.899 74.1862 296.234 75.1051C295.57 76.0239 295.319 77.1433 295.498 78.4428L296.557 86.1494L293.435 86.5785L291.41 71.8512L293.865 71.5138L294.637 74.0556L294.8 74.0333C295.166 73.082 295.703 72.3093 296.425 71.6767C297.15 71.0624 297.961 70.6751 298.863 70.5511Z" fill="black"/>
<path d="M311.195 84.4137C308.957 84.7213 307.189 84.3022 305.838 83.1639C304.504 82.0233 303.668 80.2257 303.336 77.8071C302.996 75.3345 303.347 73.3371 304.372 71.8352C305.398 70.3335 307.057 69.4251 309.349 69.1101C310.901 68.8967 312.348 68.9919 313.673 69.3983L313.082 72.054C311.692 71.7118 310.557 71.6105 309.691 71.7296C307.146 72.0793 306.098 73.952 306.562 77.327C306.79 78.9875 307.283 80.1701 308.029 80.9135C308.775 81.6569 309.77 81.943 310.998 81.7743C312.387 81.5833 313.658 81.0593 314.806 80.1843L315.181 82.9096C314.666 83.3113 314.103 83.6277 313.491 83.8591C312.864 84.1106 312.097 84.2896 311.195 84.4137Z" fill="black"/>
<path d="M331.682 81.3397L328.541 81.7714L327.296 72.7113C327.14 71.5742 326.789 70.7582 326.26 70.2608C325.732 69.7633 324.953 69.5763 323.96 69.7127C322.642 69.8938 321.741 70.4224 321.215 71.2853C320.711 72.1637 320.585 73.5233 320.838 75.3643L321.843 82.6738L318.721 83.103L315.873 62.3838L318.995 61.9546L319.72 67.2247C319.836 68.0729 319.906 68.9827 319.929 69.9542L320.128 69.9269C320.464 69.1635 320.965 68.5246 321.686 68.0209C322.39 67.5196 323.249 67.2176 324.26 67.0787C327.834 66.5875 329.868 68.1467 330.362 71.7382L331.682 81.3397Z" fill="black"/>
<path d="M139.673 94.1249L127.779 95.7598C127.907 96.0181 128.016 96.2788 128.125 96.5397C128.693 97.8593 129.139 99.2323 129.448 100.679C129.564 101.252 129.682 101.843 129.764 102.438C129.845 103.034 129.909 103.632 129.934 104.217C130.027 105.694 129.968 107.136 129.778 108.56C129.743 108.84 129.69 109.124 129.655 109.404L141.548 107.769C145.284 107.256 147.897 103.789 147.399 100.032C146.881 96.2603 143.427 93.6089 139.673 94.1249Z" fill="#00A9E5"/>
<path d="M129.954 104.214C129.911 103.631 129.865 103.031 129.783 102.435C129.701 101.84 129.601 101.247 129.468 100.676C129.159 99.2295 128.712 97.8564 128.145 96.5368C128.035 96.276 127.908 96.0178 127.799 95.7569L109.408 98.2848C109.035 100.524 108.971 102.869 109.299 105.251C109.626 107.633 110.302 109.876 111.283 111.929L129.656 109.404C129.709 109.121 129.744 108.84 129.779 108.559C129.987 107.133 130.047 105.691 129.954 104.214Z" fill="#353535"/>
<path d="M143.939 109.757L129.139 111.791C128.827 112.864 128.456 113.908 128.007 114.926C127.332 116.435 126.5 117.873 125.506 119.205C125.181 119.654 124.834 120.07 124.489 120.503C123.776 121.337 123.002 122.124 122.163 122.846C126.08 124.716 130.566 125.516 135.186 124.881C143.073 123.797 149.469 118.817 152.709 112.156C150.315 110.26 147.187 109.311 143.939 109.757Z" fill="#00BFB3"/>
<path d="M127.986 114.911C128.437 113.911 128.826 112.864 129.118 111.776L112.46 114.066C114.784 117.865 118.182 120.911 122.157 122.81C122.996 122.088 123.77 121.301 124.483 120.467C124.849 120.049 125.176 119.618 125.5 119.169C126.479 117.858 127.313 116.438 127.986 114.911Z" fill="#019B8F"/>
<path d="M121.142 87.4588C120.708 87.1138 120.261 86.8074 119.812 86.4829C118.901 85.8727 117.943 85.324 116.94 84.8549C113.607 87.7588 111.175 91.6054 109.962 95.8913L126.638 93.5991C126.048 92.6504 125.409 91.7453 124.702 90.8861C123.627 89.6181 122.44 88.4756 121.142 87.4588Z" fill="#F9B110"/>
<path d="M128.931 79.3819C124.311 80.017 120.207 81.9971 116.94 84.855C117.942 85.3241 118.901 85.8728 119.812 86.4831C120.277 86.787 120.708 87.1139 121.141 87.459C122.44 88.4757 123.626 89.6182 124.704 90.9045C125.408 91.7456 126.066 92.6481 126.64 93.6173L141.44 91.5831C144.688 91.1366 147.444 89.3786 149.24 86.925C144.32 81.3673 136.818 78.2978 128.931 79.3819Z" fill="#FED10A"/>
</g>
</g>
<defs>
<filter id="filter0_d" x="0" y="0" width="448.444" height="198.926" filterUnits="userSpaceOnUse" color-interpolation-filters="sRGB">
<feFlood flood-opacity="0" result="BackgroundImageFix"/>
<feColorMatrix in="SourceAlpha" type="matrix" values="0 0 0 0 0 0 0 0 0 0 0 0 0 0 0 0 0 0 127 0"/>
<feOffset dy="10"/>
<feGaussianBlur stdDeviation="15"/>
<feColorMatrix type="matrix" values="0 0 0 0 0.620521 0 0 0 0 0.672505 0 0 0 0 0.925 0 0 0 0.37 0"/>
<feBlend mode="normal" in2="BackgroundImageFix" result="effect1_dropShadow"/>
<feBlend mode="normal" in="SourceGraphic" in2="effect1_dropShadow" result="shape"/>
</filter>
</defs>
</svg>
