<svg width="424" height="397" viewBox="0 0 424 397" fill="none" xmlns="http://www.w3.org/2000/svg">
<path fill-rule="evenodd" clip-rule="evenodd" d="M239.667 44.3105C268.36 59.0873 273.503 96.5576 293.115 122.19C311.905 146.749 340.862 162.109 351.898 190.995C366.043 228.016 384.856 273.015 363.497 306.399C342.149 339.764 292.742 336.396 253.902 344.161C221.903 350.558 190.007 355.724 158.458 347.389C126.822 339.032 93.8493 325.3 76.7947 297.374C60.4411 270.595 75.53 236.842 71.912 205.673C67.9166 171.253 41.5475 137.879 54.5528 105.76C68.0003 72.5495 104.047 53.621 138.051 42.3333C171.011 31.392 208.793 28.4103 239.667 44.3105Z" fill="#E5F2FF"/>
</svg>
